<?xml version="1.0" encoding="utf-8"?>
<!-- Generator: Adobe Illustrator 13.0.0, SVG Export Plug-In . SVG Version: 6.00 Build 14576)  -->
<!DOCTYPE svg PUBLIC "-//W3C//DTD SVG 1.1//EN" "http://www.w3.org/Graphics/SVG/1.1/DTD/svg11.dtd">
<svg version="1.1" id="Layer_1" xmlns="http://www.w3.org/2000/svg" xmlns:xlink="http://www.w3.org/1999/xlink" x="0px" y="0px"
	 width="50px" height="50px" viewBox="0 0 50 50" enable-background="new 0 0 50 50" xml:space="preserve">
<path fill-rule="evenodd" clip-rule="evenodd" fill="#FFFFFF" d="M30.5,17.5c0,3-2,2-2,4c0,3,4,14,7,21c-1,0-3,1-5,1c1-1,2,0,2-3
	c0-2-4-7-6-10c-3,3-5,8-7,13c-1,0-3-1-4-1c3-3,7-14,7-18s-1-3-4-4c3-2,4-8,4-14h3C23.5,9.5,30.5,14.5,30.5,17.5z"/>
</svg>
