<?xml version="1.0" encoding="utf-8"?>
<!-- Generator: Adobe Illustrator 13.0.0, SVG Export Plug-In . SVG Version: 6.00 Build 14576)  -->
<!DOCTYPE svg PUBLIC "-//W3C//DTD SVG 1.1//EN" "http://www.w3.org/Graphics/SVG/1.1/DTD/svg11.dtd">
<svg version="1.1" id="Layer_1" xmlns="http://www.w3.org/2000/svg" xmlns:xlink="http://www.w3.org/1999/xlink" x="0px" y="0px"
	 width="50px" height="50px" viewBox="0 0 50 50" enable-background="new 0 0 50 50" xml:space="preserve">
<path fill-rule="evenodd" clip-rule="evenodd" fill="#FFFFFF" d="M20.5,7.5c1,1,1,3,1,4c10,4,8,6,8,14c0,2,6,9,10,13c-1,2-2,4-4,5
	c1.62-8.88-8.75-13.88-12-15c-1,1-1,0-1,2c0,3,2,5,3,7c-1,1-3,2-6,2c0-1,2-1,2-4c0-2-4-4-4-6c0-3,3-4,5-6c-3-8-8-2-11-6h6
	c0-1,1,0,1-3c0-2-1-1-2-2l1-5H20.5z"/>
</svg>
