<?xml version="1.0" encoding="utf-8"?>
<!-- Generator: Adobe Illustrator 13.0.0, SVG Export Plug-In . SVG Version: 6.00 Build 14576)  -->
<!DOCTYPE svg PUBLIC "-//W3C//DTD SVG 1.1//EN" "http://www.w3.org/Graphics/SVG/1.1/DTD/svg11.dtd">
<svg version="1.1" id="Layer_1" xmlns="http://www.w3.org/2000/svg" xmlns:xlink="http://www.w3.org/1999/xlink" x="0px" y="0px"
	 width="50px" height="50px" viewBox="0 0 50 50" enable-background="new 0 0 50 50" xml:space="preserve">
<path fill-rule="evenodd" clip-rule="evenodd" fill="#FFFFFF" d="M20.5,12.5c0.67,0.4,0.4,1.9,1.75,2.25s1.05-0.38,1.5-0.37
	c4.971,0,10.95-0.88,11.75,7.12c-1-2-3-4-5-5l-4,1c1,2,4,4,5,7c1,1,1,4,1,6c3,3,8-1,11,6c-2.88-0.82-4.25-2.62-12.75-2.75
	c-1.561-0.02-2.34-1.561-3.75-1.87c-3.42-0.76-4.67-0.38-5.5-0.38c-3,0-8,7-11,7c-2,0-3-1-3-2c4,2,8-4,9-7c2-1,5-1,8-3c-2-4-6-5-8-3
	l-6-6l2-2c1,1,1,2,1,4c1,0,4.12,0.38,6.12-0.62L16.5,17.5v-5H20.5z"/>
</svg>
