<?xml version="1.0" encoding="utf-8"?>
<!-- Generator: Adobe Illustrator 13.0.0, SVG Export Plug-In . SVG Version: 6.00 Build 14576)  -->
<!DOCTYPE svg PUBLIC "-//W3C//DTD SVG 1.1//EN" "http://www.w3.org/Graphics/SVG/1.1/DTD/svg11.dtd">
<svg version="1.1" id="Layer_1" xmlns="http://www.w3.org/2000/svg" xmlns:xlink="http://www.w3.org/1999/xlink" x="0px" y="0px"
	 width="50px" height="50px" viewBox="0 0 50 50" enable-background="new 0 0 50 50" xml:space="preserve">
<path fill-rule="evenodd" clip-rule="evenodd" fill="#FFFFFF" d="M34.5,22.5c-1-1-2-4-5-6c-1,2,0,3,0,6c0,2-3,4-3,7c0,2,4,2,4,4
	c0,3-1,4-2,5c0-1,0-3-1-4c-1,3-2,7-3,10c-4-3,0-6,0-9s-3-11-4-17l-4,4c1-5,8.25-11.12,7.25-16.12c0.68,0.68,3.029,0,2.87,2.12
	C26.5,10.25,33.62,17.75,34.5,22.5z"/>
</svg>
