<?xml version="1.0" encoding="utf-8"?>
<!-- Generator: Adobe Illustrator 13.0.0, SVG Export Plug-In . SVG Version: 6.00 Build 14576)  -->
<!DOCTYPE svg PUBLIC "-//W3C//DTD SVG 1.1//EN" "http://www.w3.org/Graphics/SVG/1.1/DTD/svg11.dtd">
<svg version="1.1" id="Layer_1" xmlns="http://www.w3.org/2000/svg" xmlns:xlink="http://www.w3.org/1999/xlink" x="0px" y="0px"
	 width="50px" height="50px" viewBox="0 0 50 50" enable-background="new 0 0 50 50" xml:space="preserve">
<path fill-rule="evenodd" clip-rule="evenodd" fill="#FFFFFF" d="M22.5,10.5c3,2,7,5,7,7c0,3-4,8-4,10c0,3,1,3,1,5h5l2-2l2,2v4
	c-1,0-3-2-5-2c-3,0-5,1-8,1c-1,3-2,7-2,10h-5c1-1,3-3,3-4c1-5,1-11,1-18l-1-1c-1,1-1.75,2.88-2.75,2.88c0,0-0.25-0.63-0.25-1.63
	c4-4,2-8.25,2-13.25c0-1,0.25-2.5,0.38-5.38L22.5,5.5C23.12,6.5,22.5,8.5,22.5,10.5z"/>
<polygon fill-rule="evenodd" clip-rule="evenodd" fill="#333333" stroke="#333333" stroke-linecap="round" stroke-linejoin="round" points="
	25,20 25.25,16.75 26.5,17.88 "/>
</svg>
