<?xml version="1.0" encoding="UTF-8" standalone="no"?>
<!-- Generator: Adobe Illustrator 12.0.0, SVG Export Plug-In . SVG Version: 6.00 Build 51448)  -->

<svg
   xmlns:dc="http://purl.org/dc/elements/1.1/"
   xmlns:cc="http://creativecommons.org/ns#"
   xmlns:rdf="http://www.w3.org/1999/02/22-rdf-syntax-ns#"
   xmlns:svg="http://www.w3.org/2000/svg"
   xmlns="http://www.w3.org/2000/svg"
   xmlns:sodipodi="http://sodipodi.sourceforge.net/DTD/sodipodi-0.dtd"
   xmlns:inkscape="http://www.inkscape.org/namespaces/inkscape"
   version="1.1"
   id="Layer_2"
   width="55.009"
   height="55.163"
   viewBox="0 0 55.009 55.163"
   overflow="visible"
   enable-background="new 0 0 55.009 55.163"
   xml:space="preserve"
   inkscape:version="0.47 r22583"
   sodipodi:docname="mamamedia.svg"><metadata
   id="metadata67"><rdf:RDF><cc:Work
       rdf:about=""><dc:format>image/svg+xml</dc:format><dc:type
         rdf:resource="http://purl.org/dc/dcmitype/StillImage" /></cc:Work></rdf:RDF></metadata><defs
   id="defs65"><inkscape:perspective
     sodipodi:type="inkscape:persp3d"
     inkscape:vp_x="0 : 27.581499 : 1"
     inkscape:vp_y="0 : 1000 : 0"
     inkscape:vp_z="55.008999 : 27.581499 : 1"
     inkscape:persp3d-origin="27.504499 : 18.387666 : 1"
     id="perspective69" /></defs><sodipodi:namedview
   pagecolor="#585858"
   bordercolor="#666666"
   borderopacity="1"
   objecttolerance="10"
   gridtolerance="10"
   guidetolerance="10"
   inkscape:pageopacity="0.72941176"
   inkscape:pageshadow="2"
   inkscape:window-width="1278"
   inkscape:window-height="719"
   id="namedview63"
   showgrid="false"
   inkscape:zoom="4.7314325"
   inkscape:cx="-9.4821852"
   inkscape:cy="27.581499"
   inkscape:window-x="0"
   inkscape:window-y="16"
   inkscape:window-maximized="0"
   inkscape:current-layer="Layer_2" />

<polygon
   points="32.844,28.597 45.426,29.053 44.282,16.243 37.533,16.472 34.102,16.7 "
   id="polygon5"
   transform="matrix(1.0199805,0,0,1.0199805,-1.2887202,1.0567637)"
   style="fill:#000000;stroke:#ffffff;stroke-width:3" />
<polyline
   points="33.631,19.106 18.647,19.335 17.847,18.992 "
   id="polyline7"
   transform="matrix(1.0199805,0,0,1.0199805,-1.2887202,1.0567637)"
   style="fill:#000000;stroke:#ffffff;stroke-width:3" />
<circle
   cx="16.875"
   cy="19.02"
   r="0.40000001"
   id="circle9"
   sodipodi:cx="16.875"
   sodipodi:cy="19.02"
   sodipodi:rx="0.40000001"
   sodipodi:ry="0.40000001"
   transform="matrix(1.0199805,0,0,1.0199805,-1.2887202,1.0567637)"
   style="fill:#000000;stroke:#ffffff;stroke-width:3" />
<path
   clip-rule="evenodd"
   d="m 33.963846,3.5628558 c 0.46409,0.3753528 0.926142,-0.210116 1.315774,0.2376554 0.753766,-0.7354058 1.657469,-2.404094 3.230278,-2.0756603 0.729287,0.1509571 1.664609,0.9200224 1.588111,2.0756603 0.594648,0.089759 0.247854,0.9220624 0.605868,1.2474361 -0.0041,0.5609894 0.300894,0.8129246 0.282534,1.3871735 0.51101,-0.2794746 0.180537,-0.9577617 0.371274,-1.3871735 2.189898,-4.92344582 4.67967,-1.7145872 3.455693,1.4799919 0.113217,0.6568674 0.502851,1.0413999 0.55997,1.7564064 0.930222,-0.3437335 2.53567,-2.09504 4.034022,-1.8737043 1.005701,0.467151 0.180537,3.6423507 -0.580368,4.5562527 0.849643,0.592608 4.796968,2.915104 -0.279475,3.514852 -0.249895,-0.573228 0.607908,-0.776205 0.373313,-2.03486 -0.08465,-0.453892 -0.717047,-0.903703 -0.745606,-1.387173 -0.03468,-0.55997 1.163798,-2.6305303 -0.187677,-3.0528022 -1.384114,-0.4314517 -1.393293,1.2260166 -2.894704,0.9251223 -0.09485,0.2203158 0.898603,0.6466677 0.747646,0.9251224 -1.551391,0.1193377 -3.217019,0.3141535 -4.948946,0.4620515 -1.322914,0.114237 -2.812086,0.383513 -3.827986,0.277434 -2.053222,-0.214196 -3.193559,-1.9522424 -4.293098,-2.8671649 3.401635,-0.1631969 7.421377,-0.1417772 10.828113,0 0.406972,0.3376136 0.813943,0.6731872 1.213776,1.0179405 C 44.922516,8.1609279 44.339088,7.7202963 44.251369,6.9910102 44.108572,5.7884532 44.857237,4.4726784 43.597561,4.2156433 42.420504,3.9749279 41.722838,5.1887047 41.822795,6.7125556 41.500481,6.9777505 41.036391,7.1032082 40.51722,7.1735867 40.307104,6.057728 40.221426,4.8153919 38.837313,4.8623109 c 0.0357,-0.988361 -0.04998,-1.7696661 -0.653808,-1.9420429 -1.206637,-0.3437333 -1.696227,1.623809 -2.427554,2.0338412 -0.03774,0.5008104 0.375353,0.942462 0.09282,1.3871735 C 35.070527,5.6640156 34.332062,4.9479893 33.048926,4.7684727 32.447138,4.0616263 32.921428,2.5520552 31.835149,2.3643787 31.26294,2.2654407 30.71113,2.6754728 30.341898,3.1966828 30.810069,4.1534245 29.72787,4.544077 29.595272,5.1387257 c -0.225416,0.9985609 0.760905,1.9440828 0.09384,3.0528016 -0.160137,-0.00408 -0.241735,0.067319 -0.280494,0.1846165 C 27.645067,8.4200033 28.278475,5.7303144 26.234435,6.3412827 25.570427,5.6354562 25.021677,5.118326 24.182233,5.3233422 c -0.314154,0.078539 -0.758865,0.4997904 -0.841483,0.833324 -0.09894,0.3947324 0.214196,0.6946068 0.279474,1.3871735 0.04182,0.4375716 -0.160137,0.9088026 -0.09384,1.202557 0.09894,0.4467515 0.772126,0.7507057 0.840464,1.1097388 0.189717,0.9883605 -0.869022,1.1505375 -1.213776,1.4799915 -0.658907,-0.458991 -1.586069,-1.103619 -2.427554,-0.370253 -0.754785,-0.767025 -0.805784,-2.2276371 -2.239877,-2.1266591 -1.129118,0.078539 -1.411652,1.4463321 -1.02712,2.5897301 0.179516,0.53141 0.717046,0.875144 0.933282,1.479992 0.09384,0.259076 0.01327,0.588529 0.09384,0.831283 0.193796,0.58343 0.753765,1.003661 0.559969,1.665628 1.499373,-0.848624 3.710689,-2.679488 5.600714,-3.976903 1.407573,-0.966941 2.722327,-1.860444 3.827986,0 -0.781305,2.229677 -2.147059,2.992622 -4.014643,4.347157 -0.793544,0.574249 -2.401034,2.005281 -2.987523,2.034861 -0.763964,0.03774 -1.967542,-1.070979 -2.987522,-1.479993 -1.156658,-0.46511 -3.232318,-1.341274 -3.360836,0.184618 -0.04589,0.548749 0.52121,0.869023 0.653808,1.201537 0.05712,0.611988 -0.526311,0.589548 -0.55997,1.108718 0.212156,1.05466 0.854743,1.680928 1.773746,2.036901 0.07853,0.476331 0.121378,0.988361 0.09384,1.570771 -0.48755,0.628307 -2.111358,0.128518 -2.614209,0.740506 -0.588529,1.829845 0.935323,2.330655 2.053222,2.775367 -0.0031,0.303953 -0.157078,0.46001 -0.09282,0.831283 -0.642588,0.54671 -1.882884,0.497751 -1.867584,1.478971 0.01327,0.778246 0.877182,1.10464 2.148078,1.018962 0.373312,0.539569 0.558949,2.490792 -0.05202,2.984462 -0.965922,-1.043439 0.191756,-1.308635 -0.322314,-2.431632 -1.657469,0.132597 -2.566271,-0.477351 -2.333715,-2.218459 0.430431,-0.590568 1.065878,-0.978161 1.866563,-1.202557 -1.314755,-0.517129 -3.747408,-1.148498 -3.373075,-3.339415 0.282534,-0.923083 3.153779,-0.671148 4.026884,-1.007741 0.0663,-0.342714 -0.160137,-0.396773 -0.09282,-0.740506 -6.397317,-0.624228 -2.430614,-2.123599 -1.399413,-3.422035 -0.369233,-0.436552 -2.199079,-2.761087 -2.096061,-3.66581 0.53141,-1.270896 4.048303,0.633408 5.454856,1.446332 0.395753,-0.599748 -0.322314,-1.01794 -0.466131,-1.479991 -0.09384,-0.299875 0.01836,-0.636468 -0.09384,-0.924102 -0.421251,-1.08832 -2.443872,-3.2822972 -1.993041,-5.0897026 0.876163,-2.1949981 2.325556,-0.9067627 2.792707,-1.2453963 1.776806,-0.1570769 4.600111,4.5062729 3.012002,-1.6605282 0.318234,-0.3631131 1.251517,-1.7849658 1.642169,-2.0756603 2.018541,-0.4885707 2.482633,2.6397095 4.16152,2.4867125 0.895543,0.315174 0.400852,-0.155037 1.095459,0.3590331 0.398813,-0.7333659 -0.533449,-1.3514741 -0.295794,-2.5142519 0.380453,-0.5140702 0.927162,0.2957944 0.731326,-0.7925248 0.780285,-1.6829679 5.556853,-1.6921478 4.986685,0.8180243 z"
   id="path11"
   style="fill:#000000;fill-rule:evenodd;stroke:#ffffff;stroke-width:1.01998043" />
<path
   clip-rule="evenodd"
   d="m 32.114621,8.0997291 c 0.835364,0.7139863 1.788027,1.3127148 2.522412,2.1256389 -0.265195,0.846584 -0.446751,1.777826 -0.744586,2.58973 -0.764986,-0.415132 -1.413693,-0.945521 -2.150118,-1.386153 -0.06528,-0.210116 -0.08261,-0.472251 -0.184617,-0.647687 -0.178498,0.0765 -0.250916,-0.167277 -0.374333,-0.185637 -1.08322,-0.159117 -1.594229,0.770085 -2.332695,1.109738 -0.431452,-1.141357 1.438172,-1.9971208 2.891645,-1.572809 0.201954,-0.6017884 0.265194,-1.3412741 0.372292,-2.0328209 z"
   id="path13"
   style="fill:#000000;fill-rule:evenodd;stroke:#ffffff;stroke-width:1.01998043" />
<path
   clip-rule="evenodd"
   d="m 35.105205,10.502803 c 0.511009,0.110158 0.875141,0.365153 1.398392,0.463071 -0.0663,0.796604 -0.240715,1.487132 -0.279475,2.313315 -0.598728,-0.116277 -1.229076,-0.200936 -1.772726,-0.370252 0.257035,-0.760906 0.483471,-1.55649 0.653809,-2.406134 z"
   id="path15"
   style="fill:#000000;fill-rule:evenodd;stroke:#ffffff;stroke-width:1.01998043" />
<path
   clip-rule="evenodd"
   d="m 7.9625029,20.930064 c -0.4069723,0.183595 -2.2470171,0.530389 -2.8253461,0.544669 0.105058,-3.288417 -2.0124215,-7.210243 -0.00204,-10.416041 1.459592,-0.606888 2.4734527,0.327414 2.3337153,2.219477 -0.1713567,2.331677 -0.2396954,6.052565 0.4936706,7.651895 z"
   id="path17"
   style="fill:#000000;fill-rule:evenodd;stroke:#ffffff;stroke-width:1.01998043" />
<path
   clip-rule="evenodd"
   d="m 28.849663,11.892016 c 0.646668,0.864943 1.177058,2.984463 0.09384,3.790248 -0.624228,-1.273956 -1.152577,-2.649909 -0.09384,-3.790248 z"
   id="path19"
   style="fill:#000000;fill-rule:evenodd;stroke:#ffffff;stroke-width:1.01998043" />
<path
   clip-rule="evenodd"
   d="m 50.880223,17.717125 c -0.233577,-0.351894 -0.201957,-0.971021 -0.746626,-1.017941 -0.350874,0.478372 0.0357,0.668087 0.09485,1.201537 0.53549,4.955065 -2.227636,8.715734 -3.64031,12.02455 -0.361072,-0.01837 -0.689507,-0.0041 -0.936342,0.09281 -1.056699,0.614029 -1.075059,1.528951 -1.584029,2.311276 -0.730306,1.117898 -2.177659,2.843707 -3.500574,3.570951 -1.264776,0.698688 -2.499971,0.907784 -3.970783,1.146459 -1.443273,0.234596 -2.521392,0.182577 -3.733129,0.278455 -3.974864,0.311094 -7.915049,-1.447352 -10.45684,-2.959984 -0.701747,-0.417172 -1.489172,-1.085259 -2.054241,-1.108718 -0.763965,-0.03264 -1.346374,0.669107 -2.147059,0.369232 -0.912883,-0.343732 -0.940422,-1.842084 -0.186657,-2.59075 0.643608,-0.134638 1.09138,-0.460011 1.868605,-0.461032 0.286615,-0.209095 0.536509,-0.45593 0.745605,-0.742544 0.238676,-2.609111 0.467152,-5.715972 1.866564,-7.674334 0.509991,-0.713987 1.518752,-1.287215 2.334736,-1.943063 0.800685,-0.642588 1.60851,-1.273956 2.333716,-1.849224 1.489171,-1.181137 3.013022,-2.813106 4.857147,-3.514854 1.734986,-0.659927 4.15132,-0.742545 6.348358,-0.925122 2.218458,-0.183597 4.583793,-0.396772 6.720652,-0.462051 0.437571,-0.01327 2.04914,0.698686 2.61421,1.108719 0.317214,0.231536 0.819044,1.147478 1.305575,1.203577 0.539569,0.0612 1.000601,-0.661968 1.494271,-0.647687 1.246417,0.03876 1.537111,2.106259 0.372294,2.58973 z m -26.233899,4.255359 c -1.247437,3.262917 0.997541,5.945465 2.894704,6.657412 3.205799,1.201538 6.020946,-1.032221 6.720652,-2.867165 1.600349,-4.182939 -1.958362,-7.352019 -5.600713,-6.843049 -1.991002,0.277434 -3.507713,1.732947 -4.014643,3.052802 z m -5.78635,11.005589 c 0.299875,-0.50489 0.760906,-0.848624 0.840464,-1.57179 -0.820064,-0.476331 -1.778846,1.175018 -0.840464,1.57179 z"
   id="path21"
   style="fill:#000000;fill-rule:evenodd;stroke:#ffffff;stroke-width:1.01998043" />
<path
   clip-rule="evenodd"
   d="m 38.773054,19.491892 c -0.08057,4.320636 8.216962,5.312058 8.219003,0.07344 9.85e-4,-2.575451 -1.868605,-4.292078 -4.414476,-3.971804 -2.458154,0.310075 -3.766788,1.825765 -3.804527,3.898366 z"
   id="path23"
   style="fill:#000000;fill-rule:evenodd;stroke:#ffffff;stroke-width:1.01998043" />
<path
   clip-rule="evenodd"
   d="m 42.577581,15.520087 c 2.545871,-0.321293 4.66845,1.403493 4.482813,3.971805 -0.409011,5.680271 -7.823249,4.247198 -8.219002,-0.07344 -0.188695,-2.0624 1.278035,-3.588291 3.736189,-3.898366 z m 1.862484,1.180118 c -0.02345,-0.611989 -0.364132,-1.046501 -1.211736,-0.832305 -2.369415,0.594649 1.303535,3.309837 1.211736,0.832305 z"
   id="path25"
   style="fill:#000000;fill-rule:evenodd;stroke:#ffffff;stroke-width:1.01998043" />
<path
   clip-rule="evenodd"
   d="m 42.66836,15.91176 c 1.239276,-0.384534 1.737026,0.394731 1.771705,1.493251 0.134638,4.447115 -5.23352,-0.425333 -1.771705,-1.493251 z"
   id="path27"
   style="fill:#000000;fill-rule:evenodd;stroke:#ffffff;stroke-width:1.01998043" />
<path
   clip-rule="evenodd"
   d="m 17.925673,16.700205 c 1.079139,0.595668 2.180717,1.168896 3.360835,1.664608 0.156057,1.01692 0.233575,2.112379 0.374333,3.144599 -0.555889,-0.0663 -0.917983,-0.324354 -1.401454,-0.462051 0.258055,-0.292735 0.473272,-1.156658 0,-1.387174 -0.579348,0.277435 -0.451851,1.046501 -0.653807,1.572811 -0.193796,0.50591 -0.52223,0.96592 -0.745606,1.479991 -0.785385,1.798226 -0.857803,3.539333 -0.654827,5.917927 0.0459,0.54263 0.457972,1.706427 -0.559969,1.664608 -0.55283,-3.585231 -0.170337,-7.290821 1.400432,-9.526618 -0.203995,-0.228475 -0.643608,-0.224395 -0.840463,-0.462051 -0.126478,-1.168897 -0.292734,-2.299037 -0.279474,-3.60665 z"
   id="path29"
   style="fill:#000000;fill-rule:evenodd;stroke:#ffffff;stroke-width:1.01998043" />
<path
   clip-rule="evenodd"
   d="m 28.660967,18.920701 c 3.642351,-0.508969 7.202082,2.66011 5.600713,6.84305 -0.699706,1.833924 -3.514853,4.068702 -6.720652,2.867165 -1.898183,-0.711946 -4.142141,-3.394495 -2.894704,-6.657413 0.50693,-1.320874 2.023641,-2.776387 4.014643,-3.052802 z"
   id="path31"
   style="fill:#000000;fill-rule:evenodd;stroke:#ffffff;stroke-width:1.01998043" />
<path
   clip-rule="evenodd"
   d="m 30.62137,22.064281 c 1.627888,-1.371873 -2.281697,-2.855944 -1.678889,-0.462051 0.01224,0.051 0.212156,0.130558 0.185637,0.370254 0.534469,0.351893 1.144418,0.386571 1.493252,0.09179 z"
   id="path33"
   style="fill:#000000;fill-rule:evenodd;stroke:#ffffff;stroke-width:1.01998043" />
<path
   clip-rule="evenodd"
   d="m 29.186258,23.102622 c 0.04079,-0.388613 -0.276415,-0.518151 -0.297835,-0.602808 -0.960822,-3.896326 5.276359,-1.479993 2.680508,0.752744 -0.557928,0.479392 -1.532011,0.422273 -2.382673,-0.149936 z"
   id="path35"
   style="fill:#000000;fill-rule:evenodd;stroke:#ffffff;stroke-width:1.01998043" />
<path
   clip-rule="evenodd"
   d="M 4.2018348,21.786846 C 3.9040004,22.543673 3.1063756,22.861906 2.7085833,23.637091 2.35159,24.330679 2.5739458,25.319039 1.8681194,25.856569 -1.6028743,25.007945 1.2459312,18.551469 4.2018348,21.786846 z"
   id="path37"
   style="fill:#000000;fill-rule:evenodd;stroke:#ffffff;stroke-width:1.01998043" />
<path
   clip-rule="evenodd"
   d="m 9.803568,23.174021 c 0.213175,1.743145 -0.3845335,3.934063 0.279474,5.735349 0.191756,0.518151 1.167878,1.356574 1.399413,2.034862 0.189717,0.549769 0.161157,1.417773 -0.372292,1.572809 C 10.348238,32.736338 9.7260493,31.5654 9.4302544,31.128848 8.476573,29.719235 8.2460574,30.572958 7.3515345,29.654976 7.5820501,29.004229 7.8523449,28.45446 7.7493269,27.891431 7.5963299,27.046886 8.0747007,26.545056 8.0298215,25.857589 7.9849424,25.162983 7.2791159,24.852908 7.5626704,24.19298 c -0.7782451,0.184617 -1.4779516,0.446752 -1.9604025,0.925123 -0.072419,0.844544 0.02244,1.482032 -0.3733129,1.850245 -0.6262679,0.580369 -2.2204975,0.218275 -2.4265335,-0.740506 -0.4997904,-2.298016 2.2225375,-4.889786 4.5735925,-4.71741 1.1342183,0.0816 1.4391926,1.0822 2.427554,1.663589 z"
   id="path39"
   style="fill:#000000;fill-rule:evenodd;stroke:#ffffff;stroke-width:1.01998043" />
<path
   clip-rule="evenodd"
   d="m 6.1632573,26.504256 c -0.3498534,-1.583009 1.0464999,-1.708467 1.306595,-0.832303 0.2570351,0.865963 -0.7792652,2.223557 -0.093838,2.958963"
   id="path41"
   style="fill:#000000;fill-rule:evenodd;stroke:#ffffff;stroke-width:1.01998043" />
<path
   clip-rule="evenodd"
   d="m 3.505188,26.556276 c 0.3508733,0.416152 0.734386,0.800685 0.9496019,1.350454 0.577309,0.361073 1.4157329,0.150958 1.5850497,0.726226 0.4691911,1.614629 -3.5005732,1.264776 -4.4348752,0.625248 C 1.1551529,28.95017 0.67984202,28.146425 0.65434255,27.594616 0.56866412,25.672972 1.8110005,25.918789 3.505188,26.556276 z"
   id="path43"
   style="fill:#000000;fill-rule:evenodd;stroke:#ffffff;stroke-width:1.01998043" />
<path
   clip-rule="evenodd"
   d="m 42.208348,29.838573 c -0.911862,0.716026 -0.973062,1.349435 -1.792106,1.809445 -1.494271,0.840464 -3.735169,1.213777 -5.229439,1.121979 -0.60179,-0.03672 -3.028323,-1.920623 -3.73619,-1.868604 -3.463853,0.258054 -1.0414,3.443453 1.326995,4.116641 1.224997,0.348833 2.752927,0.374332 3.733129,0.184616 1.549351,-0.298854 4.097261,-1.386152 4.855107,-2.218457 0.320275,-0.351893 0.950622,-0.881264 1.199498,-1.242337 0.368212,-0.53039 0.665026,-0.887382 0.483471,-1.811486 -0.403914,-0.414111 -0.57017,-0.307013 -0.840465,-0.09179 z"
   id="path45"
   style="fill:#000000;fill-rule:evenodd;stroke:#ffffff;stroke-width:1.01998043" />
<path
   clip-rule="evenodd"
   d="m 46.400468,41.48675 c -0.256015,0.208076 -0.595668,0.336594 -0.934302,0.464092 -0.700727,-0.484492 -0.762946,-1.485093 -1.587091,-1.666649 -2.073619,-0.454911 -2.126658,4.245159 -4.480773,2.127679 0.50693,-0.852703 1.527931,-1.199497 1.959383,-2.127679 -1.218877,-0.47735 -1.718668,2.273538 -3.733129,1.477951 -0.490611,-0.191755 -1.13014,-1.010799 -1.02814,-1.477951 0.289673,-1.287215 0.352913,0.110158 1.01692,-0.977141 -0.606888,-0.827204 0.156057,-0.410033 -0.643608,-0.132597 -1.142378,0.398812 -2.461213,1.565669 -3.920805,1.203576 -0.240716,-0.0612 -0.882283,-0.586488 -0.935322,-0.924102 -0.147898,-0.997541 1.696228,-0.578328 2.231717,-0.647688 0.207057,-0.0255 0.900643,-0.245814 1.636049,-0.225416 5.631312,0.168297 7.694733,-3.917744 8.924829,-5.971984 0.350874,-0.58547 0.481432,-2.276598 2.052201,-1.942044 0.833324,0.177477 1.425933,1.58607 0.842503,2.312295 -0.591588,0.733367 -1.320874,0.628308 -1.775785,0.925124 -0.635449,0.413091 -0.833324,1.431031 -0.833324,2.392874 0,0.961841 1.00672,1.523851 1.204598,2.489772 0.265193,1.283135 -0.764987,1.59219 0.0041,2.699888 z"
   id="path47"
   style="fill:#000000;fill-rule:evenodd;stroke:#ffffff;stroke-width:1.01998043" />
<path
   clip-rule="evenodd"
   d="m 19.700438,31.406283 c -0.08058,0.723166 -0.540589,1.0669 -0.840464,1.57179 -0.938382,-0.396772 0.02041,-2.048121 0.840464,-1.57179 z"
   id="path49"
   style="fill:#000000;fill-rule:evenodd;stroke:#ffffff;stroke-width:1.01998043" />
<path
   clip-rule="evenodd"
   d="m 18.391803,34.365246 c -0.120357,0.53549 -0.651768,1.198478 -0.186656,1.758447 1.02202,0.07548 1.310675,-1.03426 2.333716,-0.648708 0.185636,1.04956 -0.965922,0.876163 -0.746627,1.758446 0.305995,1.228057 1.804346,-0.213175 2.334736,-0.648707 0.693587,0.0918 0.51305,0.651767 1.120958,0.648707 0.643608,-0.0051 0.915943,-1.274976 1.679908,-0.741526 -0.182575,1.031201 -1.970602,1.841065 -2.800866,0.833325 -0.386573,1.05466 -4.125821,4.319618 -2.893685,-0.648708 -1.636048,1.141358 -2.814126,-2.525471 -0.841484,-2.311276 z"
   id="path51"
   style="fill:#000000;fill-rule:evenodd;stroke:#ffffff;stroke-width:1.01998043" />
<path
   clip-rule="evenodd"
   d="m 53.376115,54.722018 c -1.247436,0.531409 -2.416334,0.192775 -3.986085,-0.55487 -1.096477,-0.52325 -2.809025,-2.007321 -3.578091,-2.65195 -1.834945,-1.534049 -4.883666,-4.171719 -5.272279,-4.893866 -0.185636,0.55589 -3.63011,-0.324354 -4.68987,-0.324354 0.339653,-0.998561 0.50999,-2.1032 -0.03264,-2.801886 0.964903,-0.653808 0.648708,-0.670127 1.914504,-0.460011 2.078721,3.176219 4.066662,0.752745 4.842867,-0.439612 0.866984,0.744586 0.989381,0.752746 1.928783,1.426953 0.389633,0.722145 1.63095,3.516893 2.080761,4.236999 0.398813,0.640548 1.409612,1.172977 2.179697,1.474892 -0.05508,-1.096479 -1.432052,-3.165001 -1.988961,-4.086042 -0.57527,-0.953682 -1.147479,-1.918583 -1.773746,-2.776387 0.645646,-0.716026 2.686628,-1.927763 2.739668,-3.229259 1.812505,-0.413092 2.63461,3.503633 3.259856,4.560334 1.003662,1.698266 0.953683,1.845145 2.105241,3.383274 0.929202,1.240296 2.02772,5.398757 0.270295,7.135785 z"
   id="path53"
   style="fill:#000000;fill-rule:evenodd;stroke:#ffffff;stroke-width:1.01998043" />
<path
   clip-rule="evenodd"
   d="m 27.727685,46.480575 c 1.172977,0.626268 2.641749,0.960822 4.575633,0.832304 -0.52937,1.453473 -0.764986,3.989144 -2.14808,4.902026 -4.273717,0.834344 -3.048722,-3.403675 -2.427553,-5.73433 z"
   id="path55"
   style="fill:#000000;fill-rule:evenodd;stroke:#ffffff;stroke-width:1.01998043" />
<path
   clip-rule="evenodd"
   d="m 38.745514,52.121067 c -0.308034,0.620148 -0.261115,1.59321 -0.560989,2.220498 -1.53201,0.210115 -3.449574,0.03672 -5.134583,0.09282 0.704808,-2.384716 2.097081,-5.783292 2.820248,-8.151685 0.08465,0.07344 4.686809,-1.423893 4.754128,-0.166257"
   id="path57"
   style="fill:#000000;fill-rule:evenodd;stroke:#ffffff;stroke-width:1.01998043" />
<path
   clip-rule="evenodd"
   d="m 12.230102,30.665777 c 0.09384,0 0.187676,0 0.280493,0 1.384115,2.63155 2.538732,5.630292 4.107462,8.230223 0.787425,1.306595 1.331074,2.495892 2.61421,3.144599 3.992203,-0.329454 7.250022,-1.388193 10.641457,-2.312295 0.353932,0.950622 0.746625,1.648288 1.493251,2.312295 1.05466,0.934303 3.1395,1.399414 3.269038,2.868186 0.051,0.565069 -0.597709,1.872684 -0.839445,2.496912 -0.900643,2.323516 -1.884923,4.70211 -2.709067,7.027666 -2.64583,0 -5.679252,0 -8.494399,0 -0.856782,0 -1.890023,0.237656 -2.427553,-0.370253 0.196856,-0.922063 0.929204,-1.59423 1.400433,-2.403075 0.920023,-1.57485 1.752327,-3.173159 2.707028,-4.809206 0.407992,-0.699708 1.352495,-1.548331 0.840465,-2.495894 -3.332276,1.913484 -5.81083,2.798827 -8.280202,2.056281 C 16.201905,46.2215 12.923688,42.777025 12.350458,41.99776 10.957165,40.109777 9.3333565,37.867859 7.8676447,35.895217 6.9088629,34.601882 8.5724511,34.416245 9.2415584,32.517041 c 0.4957109,0.182577 1.1107586,0.989382 2.1480786,0.740507 0.488571,-0.118319 0.53957,-0.453892 0.933282,-0.740507 0.03468,-0.682366 -0.02346,-1.271914 -0.09281,-1.851264 z"
   id="path59"
   style="fill:#000000;fill-rule:evenodd;stroke:#ffffff;stroke-width:1.01998043" />
<path
   clip-rule="evenodd"
   d="m 35.372439,27.819012 c 2.240897,1.49427 3.829006,1.588109 5.136622,0 1.307614,-1.58811 1.306595,-2.055261 0.373313,-3.455694"
   id="path61"
   style="fill:#000000;fill-rule:evenodd;stroke:#ffffff;stroke-width:1.01998043" />
</svg>