<?xml version="1.0" encoding="utf-8"?>
<!-- Generator: Adobe Illustrator 13.0.0, SVG Export Plug-In . SVG Version: 6.00 Build 14576)  -->
<!DOCTYPE svg PUBLIC "-//W3C//DTD SVG 1.1//EN" "http://www.w3.org/Graphics/SVG/1.1/DTD/svg11.dtd">
<svg version="1.1" id="Layer_1" xmlns="http://www.w3.org/2000/svg" xmlns:xlink="http://www.w3.org/1999/xlink" x="0px" y="0px"
	 width="50px" height="50px" viewBox="0 0 50 50" enable-background="new 0 0 50 50" xml:space="preserve">
<path fill-rule="evenodd" clip-rule="evenodd" fill="#FFFFFF" d="M24.5,13.5c2,1,5,3,5,6c0,2-2,3-2,5c0,9,11,4,11,13c-1,0-3-2-4-3
	c-3-1-9,1-10-3c-2,3-5,7-7,11c-3,0-3-1-4-1c0-2,3-3,4-6s4-8,4-10c0-3-1-3-2-5c-1,0-2,1-3,2c0-1,2-3,2-4c1-2,3-5,2-8c0,0,1-1,4-2
	C25.5,9.5,25.5,11.5,24.5,13.5z"/>
</svg>
