<?xml version="1.0" encoding="utf-8"?>
<!-- Generator: Adobe Illustrator 13.0.0, SVG Export Plug-In . SVG Version: 6.00 Build 14576)  -->
<!DOCTYPE svg PUBLIC "-//W3C//DTD SVG 1.1//EN" "http://www.w3.org/Graphics/SVG/1.1/DTD/svg11.dtd">
<svg version="1.1" id="Layer_1" xmlns="http://www.w3.org/2000/svg" xmlns:xlink="http://www.w3.org/1999/xlink" x="0px" y="0px"
	 width="50px" height="50px" viewBox="0 0 50 50" enable-background="new 0 0 50 50" xml:space="preserve">
<path fill-rule="evenodd" clip-rule="evenodd" fill="#FFFFFF" d="M27.5,44.5v-3C28.5,42.5,28.5,43.5,27.5,44.5z M26.5,10.5
	c2,2,2,6,2,8c0,4-3,11-3,13s4,7,7,10c-2,2-4,3-5,5h-6c1-1,2-3,2-5c0-3-2-9-3-14c0,0,0-1-1,0v-6c0-3,3-8,3-11c0-1-2-2-2-6h3
	C23.5,5.5,26.5,9.5,26.5,10.5z"/>
</svg>
