<?xml version="1.0" ?>
<!DOCTYPE svg PUBLIC '-//W3C//DTD SVG 1.1//EN' 'http://www.w3.org/Graphics/SVG/1.1/DTD/svg11.dtd' [
  <!ENTITY stroke_color "#666666">
  <!ENTITY fill_color "#ffffff">
]>
<svg
  enable-background="new 0 0 54.763 55.079"
  height="55"
  id="svg42"
  overflow="visible"
  sodipodi:docname="activity-cartoonbuilder.both.svg"
  version="1.1"
  viewBox="0 0 54.763 55.079"
  width="55"
  xml:space="preserve"
  xmlns="http://www.w3.org/2000/svg"
  xmlns:cc="http://creativecommons.org/ns#"
  xmlns:dc="http://purl.org/dc/elements/1.1/"
  xmlns:rdf="http://www.w3.org/1999/02/22-rdf-syntax-ns#"
  xmlns:sodipodi="http://sodipodi.sourceforge.net/DTD/sodipodi-0.dtd"
  xmlns:svg="http://www.w3.org/2000/svg">
  <defs id="defs46"/><sodipodi:namedview bordercolor="#666666" borderopacity="1" gridtolerance="10" guidetolerance="10" id="namedview44" objecttolerance="10" pagecolor="#ffffff" showgrid="false"/>
  <g id="g878">
    <g id="g40" transform="translate(4,4)">
      <g id="g38" transform="scale(0.84)"><polyline fill="&fill_color;" id="polyline2" points="53.263,15.14 53.263,53.579 1.5,53.579 1.5,1.5 53.263,1.5  53.263,15.14 " stroke="&stroke_color;" stroke-width="3"/><rect fill="&fill_color;" height="5.125" id="rect4" stroke="&stroke_color;" stroke-width="3" width="2.054" x="10.702" y="5.302"/><rect fill="&fill_color;" height="5.125" id="rect6" stroke="&stroke_color;" stroke-width="3" width="2.054" x="21.137" y="5.302"/><rect fill="&fill_color;" height="5.125" id="rect8" stroke="&stroke_color;" stroke-width="3" width="2.053" x="31.572" y="5.302"/><rect fill="&fill_color;" height="5.125" id="rect10" stroke="&stroke_color;" stroke-width="3" width="2.054" x="42.006" y="5.302"/><rect fill="&fill_color;" height="5.123" id="rect12" stroke="&stroke_color;" stroke-width="3" width="2.054" x="10.702" y="44.238"/><rect fill="&fill_color;" height="5.123" id="rect14" stroke="&stroke_color;" stroke-width="3" width="2.054" x="21.137" y="44.238"/><rect fill="&fill_color;" height="5.123" id="rect16" stroke="&stroke_color;" stroke-width="3" width="2.053" x="31.572" y="44.238"/><rect fill="&fill_color;" height="5.123" id="rect18" stroke="&stroke_color;" stroke-width="3" width="2.054" x="42.006" y="44.238"/><ellipse cx="18.425" cy="27.374" fill="&fill_color;" id="ellipse20" rx="12.078" ry="12.07" stroke="&stroke_color;" stroke-width="3"/><ellipse cx="13.331" cy="22.786" fill="&fill_color;" id="ellipse22" rx="1.479" ry="1.282" stroke="&stroke_color;" stroke-width="3"/><ellipse cx="23.191" cy="22.786" fill="&fill_color;" id="ellipse24" rx="1.479" ry="1.282" stroke="&stroke_color;" stroke-width="3"/><path d="M11.524,29.109c1.447,2.12,2.546,4.456,7.476,4.548  c4.437,0.081,6.337-3.853,6.958-4.937" fill="&fill_color;" id="path26" stroke="&stroke_color;" stroke-width="3"/><ellipse cx="18.179" cy="27.209" fill="&fill_color;" id="ellipse28" rx="0.246" ry="0.165" stroke="&stroke_color;" stroke-width="3"/><path d="M51.373,39.443c-6.671,0-12.078-5.404-12.078-12.07  c0-6.665,5.407-12.069,12.078-12.069" fill="&fill_color;" id="path30" stroke="&stroke_color;" stroke-width="3"/><ellipse cx="46.278" cy="22.87" fill="&fill_color;" id="ellipse32" rx="1.479" ry="1.281" stroke="&stroke_color;" stroke-width="3"/><path d="M44.471,29.193c2.712,3.141,5.423,5.289,7.065,5.373  c0.264,0.014,0.602-0.072,0.985-0.228" fill="&fill_color;" id="path34" stroke="&stroke_color;" stroke-width="3"/><ellipse cx="51.126" cy="27.292" fill="&fill_color;" id="ellipse36" rx="0.247" ry="0.166" stroke="&stroke_color;" stroke-width="3"/></g>
    </g>
  </g>
</svg>
